<svg width="120" height="120" viewBox="0 0 120 120" xmlns="http://www.w3.org/2000/svg">
  <!-- Purple background with gradient -->
  <defs>
    <linearGradient id="bgGradient" x1="0%" y1="0%" x2="100%" y2="100%">
      <stop offset="0%" style="stop-color:#9370DB;stop-opacity:1" />
      <stop offset="50%" style="stop-color:#8A2BE2;stop-opacity:1" />
      <stop offset="100%" style="stop-color:#4B0082;stop-opacity:1" />
    </linearGradient>
    <linearGradient id="goldGradient" x1="0%" y1="0%" x2="100%" y2="100%">
      <stop offset="0%" style="stop-color:#FFD700;stop-opacity:1" />
      <stop offset="100%" style="stop-color:#FFA500;stop-opacity:1" />
    </linearGradient>
    <filter id="shadow" x="-20%" y="-20%" width="140%" height="140%">
      <feDropShadow dx="3" dy="3" stdDeviation="2" flood-color="#8B4513" flood-opacity="0.8"/>
    </filter>
  </defs>
  
  <!-- Background circle with purple gradient -->
  <circle cx="60" cy="60" r="55" fill="url(#bgGradient)" stroke="#8B4513" stroke-width="3"/>
  
  <!-- Mario-style border -->
  <circle cx="60" cy="60" r="58" fill="none" stroke="#654321" stroke-width="2"/>
  
  <!-- Email envelope (Mario-style) -->
  <g filter="url(#shadow)">
    <!-- Envelope base -->
    <rect x="25" y="35" width="70" height="50" rx="8" fill="url(#goldGradient)" stroke="#8B4513" stroke-width="3"/>
    
    <!-- Envelope flap -->
    <path d="M 25 35 L 60 55 L 95 35" fill="none" stroke="#8B4513" stroke-width="3" stroke-linecap="round"/>
    
    <!-- Email lines (Mario-style) -->
    <rect x="35" y="45" width="50" height="3" rx="1.5" fill="#8B4513"/>
    <rect x="35" y="52" width="35" height="3" rx="1.5" fill="#8B4513"/>
    <rect x="35" y="59" width="40" height="3" rx="1.5" fill="#8B4513"/>
    
    <!-- Mario star in corner -->
    <g transform="translate(75, 40)">
      <path d="M 0 -8 L 2 -2 L 8 0 L 2 2 L 0 8 L -2 2 L -8 0 L -2 -2 Z" fill="#FFD700" stroke="#8B4513" stroke-width="1"/>
    </g>
  </g>
  
  <!-- Gaming elements -->
  <!-- Small coins -->
  <circle cx="20" cy="25" r="4" fill="#FFD700" stroke="#8B4513" stroke-width="1"/>
  <circle cx="100" cy="25" r="4" fill="#FFD700" stroke="#8B4513" stroke-width="1"/>
  <circle cx="20" cy="95" r="4" fill="#FFD700" stroke="#8B4513" stroke-width="1"/>
  <circle cx="100" cy="95" r="4" fill="#FFD700" stroke="#8B4513" stroke-width="1"/>
  
  <!-- Pixel art dots -->
  <rect x="15" y="20" width="2" height="2" fill="#FFD700"/>
  <rect x="103" y="20" width="2" height="2" fill="#FFD700"/>
  <rect x="15" y="98" width="2" height="2" fill="#FFD700"/>
  <rect x="103" y="98" width="2" height="2" fill="#FFD700"/>
</svg> 