<svg width="40" height="40" viewBox="0 0 40 40" xmlns="http://www.w3.org/2000/svg">
  <!-- Purple background with gradient -->
  <defs>
    <linearGradient id="bgGradientSmall" x1="0%" y1="0%" x2="100%" y2="100%">
      <stop offset="0%" style="stop-color:#9370DB;stop-opacity:1" />
      <stop offset="50%" style="stop-color:#8A2BE2;stop-opacity:1" />
      <stop offset="100%" style="stop-color:#4B0082;stop-opacity:1" />
    </linearGradient>
    <linearGradient id="goldGradientSmall" x1="0%" y1="0%" x2="100%" y2="100%">
      <stop offset="0%" style="stop-color:#FFD700;stop-opacity:1" />
      <stop offset="100%" style="stop-color:#FFA500;stop-opacity:1" />
    </linearGradient>
    <filter id="shadowSmall" x="-20%" y="-20%" width="140%" height="140%">
      <feDropShadow dx="1" dy="1" stdDeviation="1" flood-color="#8B4513" flood-opacity="0.8"/>
    </filter>
  </defs>
  
  <!-- Background circle with purple gradient -->
  <circle cx="20" cy="20" r="18" fill="url(#bgGradientSmall)" stroke="#8B4513" stroke-width="2"/>
  
  <!-- Mario-style border -->
  <circle cx="20" cy="20" r="19" fill="none" stroke="#654321" stroke-width="1"/>
  
  <!-- Email envelope (Mario-style) -->
  <g filter="url(#shadowSmall)">
    <!-- Envelope base -->
    <rect x="8" y="12" width="24" height="16" rx="3" fill="url(#goldGradientSmall)" stroke="#8B4513" stroke-width="2"/>
    
    <!-- Envelope flap -->
    <path d="M 8 12 L 20 20 L 32 12" fill="none" stroke="#8B4513" stroke-width="2" stroke-linecap="round"/>
    
    <!-- Email lines (Mario-style) -->
    <rect x="12" y="15" width="16" height="1" rx="0.5" fill="#8B4513"/>
    <rect x="12" y="17" width="12" height="1" rx="0.5" fill="#8B4513"/>
    <rect x="12" y="19" width="14" height="1" rx="0.5" fill="#8B4513"/>
    
    <!-- Mario star in corner -->
    <g transform="translate(25, 13)">
      <path d="M 0 -3 L 1 -1 L 3 0 L 1 1 L 0 3 L -1 1 L -3 0 L -1 -1 Z" fill="#FFD700" stroke="#8B4513" stroke-width="0.5"/>
    </g>
  </g>
  
  <!-- Small coins -->
  <circle cx="7" cy="8" r="1.5" fill="#FFD700" stroke="#8B4513" stroke-width="0.5"/>
  <circle cx="33" cy="8" r="1.5" fill="#FFD700" stroke="#8B4513" stroke-width="0.5"/>
  <circle cx="7" cy="32" r="1.5" fill="#FFD700" stroke="#8B4513" stroke-width="0.5"/>
  <circle cx="33" cy="32" r="1.5" fill="#FFD700" stroke="#8B4513" stroke-width="0.5"/>
</svg> 